<svg id="solid" height="512" viewBox="0 0 512 512" width="512" xmlns="http://www.w3.org/2000/svg"><path d="m195.816 384h22.418l14.177-42.53a8 8 0 0 1 7.589-5.47h144v-16h-162.583z"/><path d="m176 192h80v16h-80z"/><path d="m352 44.402-16 2.461v17.137h16z"/><path d="m392 88.165v7.835h32v-1.373a62.171 62.171 0 0 1 16-41.813v-2.637a16.569 16.569 0 0 0 -19.089-16.377l-52.911 8.14v22.06a24.191 24.191 0 0 1 24 24.165z"/><path d="m392 144h32v16h-32z"/><path d="m384 112h48v16h-48z"/><path d="m80 192h80v144h-80z"/><path d="m168 400h224v16h-224z"/><path d="m480 233.373v-10.746a46.628 46.628 0 0 0 -46.627-46.627h-50.746a46.628 46.628 0 0 0 -46.627 46.627v10.746a46.32 46.32 0 0 0 13.657 32.97 8 8 0 0 1 0 11.314 46.267 46.267 0 0 0 -13.186 26.343h55.529a8 8 0 0 1 8 8v32a8 8 0 0 1 -8 8h-56v32h64a8 8 0 0 1 8 8v32a8 8 0 0 1 -8 8h-5.754l6 24h64.084a15.687 15.687 0 0 0 15.67-15.67v-129.7a46.32 46.32 0 0 0 -13.657-32.97 8 8 0 0 1 0-11.314 46.32 46.32 0 0 0 13.657-32.973z"/><path d="m144 96c48.6 0 88 35.817 88 80h15.7a104 104 0 0 0 -207.39 0h15.69c0-44.183 39.4-80 88-80z"/><path d="m182.246 432-12 48h31.508l6.485-25.94 15.522 3.88-5.515 22.06h29.754v-24h16v24h32v-24h16v24h29.754l-5.515-22.06 15.522-3.88 6.485 25.94h31.508l-12-48z"/><path d="m32 192h32v16h-32z"/><path d="m208.572 309.029a8 8 0 0 1 7.428-5.029h24.639l6.667-80h-71.306v120a8 8 0 0 1 -8 8h-96a8 8 0 0 1 -8-8v-120h-23.306l14.667 176h96.639v-8a8 8 0 0 1 8-8h18.584z"/></svg>